<svg width="139" height="22" viewBox="0 0 139 22" fill="none" xmlns="http://www.w3.org/2000/svg">
<g clip-path="url(#clip0_2_20951)">
<path d="M38.4985 17.9479C38.4985 15.612 40.3272 14.3772 44.0088 14.3772H47.7557V13.9808C47.7557 12.6139 46.7199 11.9304 44.6922 11.9304C42.8849 11.9304 41.9159 12.4149 41.6516 13.4067H38.8752C39.1395 11.1361 41.366 9.8147 44.8699 9.8147C48.6168 9.8147 50.5336 11.291 50.5336 14.157V17.9692C50.5336 18.5858 50.7979 18.8729 51.4585 18.8729H51.9658V21.2529H50.4895C49.0786 21.2529 48.1096 20.6575 48.1096 19.4683V19.4242C47.1406 20.7471 45.4653 21.3865 43.3709 21.3865C40.2862 21.3865 38.5001 20.1305 38.5001 17.9479H38.4985ZM47.7557 16.6038V16.2955H43.8994C42.1148 16.2955 41.3205 16.78 41.3205 17.7945C41.3205 18.8091 42.1801 19.3149 43.8554 19.3149C46.17 19.3149 47.7557 18.2122 47.7557 16.6038Z" fill="black"/>
<path d="M52.8912 5.82629H55.6903V15.17L61.6183 9.94683H65.189L60.0539 14.4425L65.4973 21.2529H62.0147L58.0035 16.2499L55.6888 18.2775V21.2529H52.8896V5.82629H52.8912Z" fill="black"/>
<path d="M65.3208 17.9479C65.3208 15.612 67.1494 14.3772 70.831 14.3772H74.578V13.9808C74.578 12.6139 73.5421 11.9304 71.5145 11.9304C69.7071 11.9304 68.7381 12.4149 68.4739 13.4067H65.6975C65.9617 11.1361 68.1883 9.8147 71.6922 9.8147C75.4391 9.8147 77.3559 11.291 77.3559 14.157V17.9692C77.3559 18.5858 77.6201 18.8729 78.2808 18.8729H78.7881V21.2529H77.3118C75.9008 21.2529 74.9318 20.6575 74.9318 19.4683V19.4242C73.9628 20.7471 72.2876 21.3865 70.1931 21.3865C67.1084 21.3865 65.3223 20.1305 65.3223 17.9479H65.3208ZM74.578 16.6038V16.2955H70.7217C68.9371 16.2955 68.1428 16.78 68.1428 17.7945C68.1428 18.8091 69.0024 19.3149 70.6776 19.3149C72.9923 19.3149 74.578 18.2122 74.578 16.6038Z" fill="black"/>
<path d="M79.1407 17.5516H81.829C81.9383 18.7195 83.1291 19.3149 85.3329 19.3149C87.3605 19.3149 88.3735 18.8517 88.3735 17.9267C88.3735 17.0899 87.6901 16.8681 85.1339 16.7147C80.9678 16.4717 79.4034 15.5908 79.4034 13.4311C79.4034 11.2713 81.5191 9.81628 84.9349 9.81628C88.3507 9.81628 90.6654 11.1164 90.8416 13.3642H88.1533C87.9771 12.3724 86.9413 11.8879 84.979 11.8879C83.0167 11.8879 82.1145 12.3071 82.1145 13.188C82.1145 14.069 82.798 14.2679 85.3101 14.4441C89.6083 14.7524 91.0846 15.5908 91.0846 17.7278C91.0846 19.8647 88.814 21.3866 85.3101 21.3866C81.5191 21.3866 79.25 19.9756 79.1392 17.5516H79.1407Z" fill="black"/>
<path d="M92.4302 5.82629H95.2293V11.4687C96.1103 10.4328 97.544 9.81621 99.5488 9.81621C102.811 9.81621 104.971 11.4246 104.971 15.1943V21.2544H102.172V15.4358C102.172 13.2988 101.092 12.1521 98.8882 12.1521C96.5082 12.1521 95.2293 13.3201 95.2293 15.4358V21.2544H92.4302V5.82629Z" fill="black"/>
<path d="M106.932 5.82629H110.106L116.498 18.1909L122.845 5.82629H125.975V21.2528H123.463V9.83747L117.512 21.2544H115.374L109.446 9.83747V21.2544H106.934V5.82629H106.932Z" fill="black"/>
<path d="M128.223 5.82629H130.758V19.005H139V21.2529H128.223V5.82629Z" fill="black"/>
<path d="M15.0547 21.2619C15.4071 21.2619 15.6926 20.9763 15.6926 20.624V5.66369C15.6926 4.90732 15.559 4.21475 15.2932 3.58748C15.0274 2.96021 14.6568 2.42711 14.1829 1.98817C13.7106 1.55075 13.1532 1.21206 12.5122 0.973605C11.8713 0.732115 11.1772 0.613647 10.4269 0.613647C9.40172 0.613647 8.47069 0.893109 7.63231 1.45051C6.79392 2.00792 6.19703 2.79466 5.84315 3.81226L0.0488879 20.1698C-0.139445 20.7029 0.25089 21.2619 0.809812 21.2619H3.13663C3.4814 21.2619 3.7882 21.0416 3.90059 20.7121L9.09644 5.54371C9.2544 5.12603 9.41843 4.80253 9.5855 4.57167C9.75257 4.34233 10.0047 4.22842 10.3388 4.22842C11.364 4.22842 11.8774 4.82531 11.8774 6.02061V20.624C11.8774 20.9763 12.1629 21.2619 12.5153 21.2619H15.0578H15.0547Z" fill="black"/>
<path d="M30.0503 9.98096C30.2014 9.5694 30.8386 9.59865 30.9204 10.0688L30.9312 10.1265C31.2237 11.8083 32.5413 13.1259 34.2231 13.4185L34.2817 13.4292H34.2808C34.7825 13.5163 34.7825 14.2367 34.2808 14.3237L34.2798 14.3228L34.2231 14.3335C32.5413 14.626 31.2237 15.9437 30.9312 17.6255V17.6265L30.9204 17.6841C30.8381 18.1537 30.2012 18.1826 30.0503 17.771L30.0425 17.7788L30.0249 17.6851L30.0142 17.6274C29.9635 17.3347 29.8861 16.937 29.6372 16.5347C29.3887 16.1332 28.9671 15.7228 28.2222 15.4106H28.2212C27.3804 15.0577 26.052 14.8109 24.3042 14.6528C22.5574 14.4949 20.3961 14.4263 17.8931 14.4263H7.43506V14.4253C7.17527 14.3802 7.05139 14.1456 7.05127 13.9233C7.05127 13.7009 7.17515 13.4653 7.43506 13.4194C7.45485 13.416 7.50844 13.4139 7.58447 13.4116C7.66285 13.4093 7.77088 13.4068 7.90381 13.4048C8.16965 13.4007 8.53717 13.398 8.9751 13.395C9.85157 13.3891 11.0111 13.3846 12.2026 13.3823C13.5824 13.3793 15.0054 13.3788 16.0835 13.3784C16.6223 13.3782 17.075 13.3774 17.3931 13.3774C17.5519 13.3775 17.6776 13.3784 17.7632 13.3784H17.895C20.6955 13.3784 22.9832 13.2827 24.7671 13.0835C26.5523 12.8841 27.8277 12.5812 28.6079 12.1675L28.8013 12.0552C29.7202 11.4744 29.9329 10.6046 30.0161 10.1265L30.0269 10.0688L30.0503 9.98096Z" fill="black" stroke="black" stroke-width="0.1"/>
</g>
<defs>
<clipPath id="clip0_2_20951">
<rect width="139" height="20.7728" fill="white" transform="translate(0 0.613647)"/>
</clipPath>
</defs>
</svg>
